<?xml version="1.0" encoding="UTF-8"?>
<!-- Created with Inkscape (http://www.inkscape.org/) -->
<svg width="261.77mm" height="261.77mm" version="1.1" viewBox="0 0 261.77 261.77" xmlns="http://www.w3.org/2000/svg" xmlns:cc="http://creativecommons.org/ns#" xmlns:dc="http://purl.org/dc/elements/1.1/" xmlns:rdf="http://www.w3.org/1999/02/22-rdf-syntax-ns#">
 <metadata>
  <rdf:RDF>
   <cc:Work rdf:about="">
    <dc:format>image/svg+xml</dc:format>
    <dc:type rdf:resource="http://purl.org/dc/dcmitype/StillImage"/>
    <dc:title/>
   </cc:Work>
  </rdf:RDF>
 </metadata>
 <g transform="translate(20.515 -23.997)">
  <path transform="matrix(.26458 0 0 .26458 -20.515 23.997)" d="m489.72 3.2754a491.43 491.43 0 0 0-486.46 494.71 491.43 491.43 0 0 0 83.977 270.81l182.46-245.16 56.348 119.33 166.94-254.72 166.94 254.72 56.35-119.33 184.44 247.83a491.43 491.43 0 0 0 85.404-276.78l-0.04492-6.6035a491.43 491.43 0 0 0-496.34-484.8z" fill="#86a4f3" fill-rule="1" id="sky" style="paint-order:stroke fill markers"/>
  <g>
   <path d="m109.92 84.303h34.204l-6.2258 10.783 5.0212 8.697h-31.803z" fill="#ee7272" stroke-width="0"/>
   <path d="m109.92 126.72-44.169 67.396-14.909-31.572-48.275 64.866c24.217 36.035 64.822 57.605 108.24 57.498 42.842-0.14821 82.861-21.391 106.99-56.792l-48.8-65.572-14.909 31.572zm107.92 101.33c-158.9 38.482-79.451 19.241 0 0z" fill="#ececec" stroke="#ececec" stroke-linecap="round" stroke-linejoin="round" stroke-width=".12" style="paint-order:stroke fill markers"/>
   <path d="m109.92 126.72v-42.413z" fill="none" stroke="#000" stroke-linecap="round" stroke-linejoin="round" stroke-width="2.665" style="paint-order:stroke fill markers"/>
  </g>
 </g>
</svg>
