<?xml version="1.0" encoding="UTF-8"?>
<!-- Generator: Adobe Illustrator 19.0.0, SVG Export Plug-In . SVG Version: 6.00 Build 0)  -->
<svg enable-background="new 0 0 512 512" version="1.1" viewBox="0 0 512 512" xml:space="preserve" xmlns="http://www.w3.org/2000/svg" xmlns:cc="http://creativecommons.org/ns#" xmlns:dc="http://purl.org/dc/elements/1.1/" xmlns:rdf="http://www.w3.org/1999/02/22-rdf-syntax-ns#"><metadata><rdf:RDF><cc:Work rdf:about=""><dc:format>image/svg+xml</dc:format><dc:type rdf:resource="http://purl.org/dc/dcmitype/StillImage"/><dc:title/></cc:Work></rdf:RDF></metadata>
<path d="m502.75 289.93c0-91.986-74.568-166.55-166.55-166.55-29.074 0-56.403 7.457-80.193 20.552-23.79-13.095-51.119-20.552-80.193-20.552-91.986 0-166.55 74.568-166.55 166.55 0 89.92 71.259 163.18 160.39 166.43v0.126h172.72v-0.126c89.126-3.245 160.38-76.508 160.38-166.43z" fill="#E07188"/>
    <path d="m336.19 123.37c-8.368 0-16.588 0.638-24.624 1.83 80.259 11.945 141.83 81.142 141.83 164.72 0 89.92-71.259 163.18-160.39 166.43v0.126h49.349v-0.126c89.126-3.247 160.39-76.51 160.39-166.43 0-91.987-74.568-166.56-166.55-166.56z" fill="#DC4161"/>
    <path d="m311.52 135.71c0-12.15 29.009-34.699 21.73-44.248-6.887-9.035-38.71 11.671-50.103 6.637-10.332-4.563-14.637-42.581-27.145-42.581s-16.813 38.019-27.145 42.584c-11.395 5.034-43.219-15.671-50.106-6.636-7.277 9.548 21.732 32.096 21.732 44.245 0 12.15-29.009 34.699-21.73 44.248 6.885 9.035 38.71-11.671 50.103-6.637 10.331 4.565 14.637 42.584 27.145 42.584s16.813-38.019 27.145-42.584c11.395-5.034 43.219 15.671 50.106 6.636 7.277-9.55-21.732-32.098-21.732-44.248z" fill="#95D5A7"/>
    <path d="m355.74 115.2c-5.068-0.555-9.651 3.099-10.214 8.178s3.099 9.653 8.178 10.215c79.692 8.821 139.79 76.031 139.79 156.34 0 85.045-66.534 154.09-151.47 157.18-0.402 0.015-0.798 0.056-1.186 0.12h-169.68c-0.387-0.064-0.783-0.105-1.186-0.12-84.935-3.093-151.47-72.137-151.47-157.18 0-86.737 70.565-157.3 157.3-157.3 4.818 0 9.661 0.225 14.456 0.66 0.514 0.972 0.867 1.812 0.957 2.424-0.413 2.802-6.107 10.21-9.524 14.658-8.737 11.371-18.641 24.259-10.304 35.198 7.675 10.07 21.856 5.31 35.567 0.707 5.553-1.863 14.694-4.939 17.936-4.503 2.025 2.184 5.103 10.167 6.976 15.027 5.125 13.293 10.935 28.36 24.128 28.36s19.002-15.066 24.128-28.36c1.874-4.86 4.952-12.843 6.976-15.027 3.245-0.436 12.383 2.64 17.935 4.503 13.714 4.602 27.892 9.362 35.57-0.708 8.339-10.94-1.567-23.827-10.304-35.197-3.419-4.446-9.112-11.855-9.526-14.657 0.413-2.802 6.107-10.21 9.524-14.658 8.737-11.371 18.641-24.259 10.304-35.198-7.673-10.07-21.854-5.309-35.567-0.707-5.553 1.864-14.691 4.94-17.936 4.503-2.025-2.182-5.103-10.167-6.976-15.027-5.125-13.294-10.935-28.36-24.127-28.36s-19.002 15.066-24.128 28.36c-1.874 4.86-4.952 12.843-6.976 15.027-3.242 0.437-12.383-2.64-17.935-4.503-13.715-4.602-27.894-9.363-35.57 0.708-6.683 8.768-1.645 18.787 5.118 28.275-0.233-1e-3 -0.468-0.01-0.702-0.01-96.94-1e-3 -175.81 78.866-175.81 175.81 0 45.825 17.534 89.204 49.37 122.15 31.392 32.483 73.374 51.432 118.37 53.465 0.613 0.128 1.249 0.195 1.9 0.195h172.72c0.651 0 1.287-0.068 1.9-0.195 44.996-2.033 86.976-20.982 118.37-53.465 31.837-32.942 49.371-76.321 49.371-122.15 0-89.753-67.177-164.87-156.26-174.73zm-154.67-12.504c11.775 3.953 22.897 7.684 31.522 3.873 8.192-3.62 12.062-13.659 16.544-25.283 1.68-4.36 4.551-11.806 6.861-15.255 2.308 3.45 5.179 10.895 6.861 15.255 4.482 11.624 8.354 21.663 16.544 25.283 8.626 3.811 19.747 0.079 31.523-3.874 3.545-1.189 8.681-2.913 12.493-3.778-2.05 3.393-5.453 7.821-7.79 10.863-6.876 8.945-13.368 17.393-13.368 25.934 0 8.542 6.493 16.99 13.366 25.933 2.337 3.042 5.739 7.47 7.79 10.862-3.813-0.865-8.951-2.588-12.495-3.778-11.775-3.953-22.896-7.682-31.522-3.873-8.192 3.62-12.062 13.659-16.544 25.283-1.68 4.36-4.551 11.806-6.861 15.255-2.308-3.45-5.179-10.895-6.861-15.255-4.482-11.624-8.354-21.663-16.544-25.283-2.543-1.124-5.304-1.592-8.234-1.592-7.008 0-14.985 2.677-23.289 5.465-3.545 1.189-8.681 2.913-12.493 3.778 2.05-3.393 5.453-7.821 7.791-10.863 6.874-8.943 13.366-17.392 13.366-25.933 0-8.542-6.493-16.99-13.366-25.934-2.338-3.042-5.739-7.47-7.79-10.862 3.813 0.866 8.95 2.59 12.496 3.779z" fill="#2E2D31"/>
</svg>
