<?xml version="1.0" encoding="UTF-8" standalone="no"?>
<!-- Created with Inkscape (http://www.inkscape.org/) -->

<svg
    xmlns:dc="http://purl.org/dc/elements/1.1/"
    xmlns:cc="http://creativecommons.org/ns#"
    xmlns:rdf="http://www.w3.org/1999/02/22-rdf-syntax-ns#"
    xmlns:svg="http://www.w3.org/2000/svg"
    xmlns="http://www.w3.org/2000/svg"
    xmlns:sodipodi="http://sodipodi.sourceforge.net/DTD/sodipodi-0.dtd"
    xmlns:inkscape="http://www.inkscape.org/namespaces/inkscape"
    width="261.76727mm"
    height="261.76727mm"
    viewBox="0 0 261.76727 261.76727"
    version="1.1"
    id="svg5105"
    inkscape:version="0.92.4 (f8dce91, 2019-08-02)"
    sodipodi:docname="goal.svg">
  <defs
      id="defs5099" />
  <sodipodi:namedview
      id="base"
      pagecolor="#ffffff"
      bordercolor="#666666"
      borderopacity="1.0"
      inkscape:pageopacity="0.0"
      inkscape:pageshadow="2"
      inkscape:zoom="0.175"
      inkscape:cx="526.78132"
      inkscape:cy="-233.92952"
      inkscape:document-units="mm"
      inkscape:current-layer="layer1"
      showgrid="true"
      fit-margin-top="0"
      fit-margin-left="0"
      fit-margin-right="0"
      fit-margin-bottom="0"
      inkscape:window-width="969"
      inkscape:window-height="750"
      inkscape:window-x="1961"
      inkscape:window-y="219"
      inkscape:window-maximized="0" />
  <metadata
      id="metadata5102">
    <rdf:RDF>
      <cc:Work
          rdf:about="">
        <dc:format>image/svg+xml</dc:format>
        <dc:type
            rdf:resource="http://purl.org/dc/dcmitype/StillImage" />
        <dc:title></dc:title>
      </cc:Work>
    </rdf:RDF>
  </metadata>
  <g
      inkscape:label="Layer 1"
      inkscape:groupmode="layer"
      id="layer1"
      transform="translate(20.51458,-23.997247)">
    <path
        style="fill:#86a4f3;fill-opacity:1;stroke:none;stroke-width:6.50078773;stroke-linecap:round;stroke-linejoin:bevel;stroke-miterlimit:4;stroke-dasharray:none;stroke-dashoffset:0;stroke-opacity:1;paint-order:stroke fill markers"
        d="M 489.72461 3.2753906 A 491.42855 491.42855 0 0 0 3.2617188 497.98047 A 491.42855 491.42855 0 0 0 87.238281 768.78906 L 269.69336 523.625 L 326.04102 642.95312 L 492.97852 388.22852 L 659.91406 642.95312 L 716.26367 523.625 L 900.70312 771.45703 A 491.42855 491.42855 0 0 0 986.10742 494.67773 L 986.0625 488.07422 A 491.42855 491.42855 0 0 0 489.72461 3.2753906 z "
        id="path5680"
        transform="matrix(0.26458333,0,0,0.26458333,-20.51458,23.997247)" />
    <path
        style="fill:#ee7272;stroke:#000000;stroke-width:0;stroke-linecap:butt;stroke-linejoin:miter;stroke-opacity:1;fill-opacity:1;stroke-miterlimit:4;stroke-dasharray:none"
        d="m 109.91932,88.838924 h 34.20413 l -6.22583,10.783454 5.02119,8.696962 h -31.80315 z"
        id="path5726"
        inkscape:connector-curvature="0" />
    <path
        style="fill:none;stroke:#000000;stroke-width:2.66499996;stroke-linecap:round;stroke-linejoin:round;stroke-miterlimit:4;stroke-dasharray:none;stroke-opacity:1;paint-order:stroke fill markers"
        d="M 109.91932,131.25175 V 88.838926 Z"
        id="path5724"
        inkscape:connector-curvature="0" />
    <path
        style="fill:#ececec;fill-opacity:1;stroke:none;stroke-width:1.72000003;stroke-linecap:round;stroke-linejoin:bevel;stroke-miterlimit:4;stroke-dasharray:none;stroke-dashoffset:0;stroke-opacity:1;paint-order:stroke fill markers"
        d="m 109.05839,24.863865 a 130.0238,130.0238 0 0 0 -10.857217,0.65319 130.0238,130.0238 0 0 1 10.857217,-0.65319 z m 10.87168,0.43408 a 130.0238,130.0238 0 0 1 6.45697,0.69608 130.0238,130.0238 0 0 0 -6.45697,-0.69608 z m -28.172953,1.0449 a 130.0238,130.0238 0 0 0 -6.41356,1.03559 130.0238,130.0238 0 0 1 6.41356,-1.03559 z m 41.057443,0.55655 a 130.0238,130.0238 0 0 1 6.36498,1.33894 130.0238,130.0238 0 0 0 -6.36498,-1.33894 z m -53.793098,1.94304 a 130.0238,130.0238 0 0 0 -6.282303,1.67173 130.0238,130.0238 0 0 1 6.282303,-1.67173 z m 66.460018,0.93792 a 130.0238,130.0238 0 0 1 6.19394,1.96578 130.0238,130.0238 0 0 0 -6.19394,-1.96578 z m -78.885615,2.82102 a 130.0238,130.0238 0 0 0 -6.085417,2.29133 130.0238,130.0238 0 0 1 6.085417,-2.29133 z m 91.197015,1.30793 a 130.0238,130.0238 0 0 1 5.97431,2.57762 130.0238,130.0238 0 0 0 -5.97431,-2.57762 z M 54.6121,37.579885 a 130.0238,130.0238 0 0 0 -5.833753,2.89078 130.0238,130.0238 0 0 1 5.833753,-2.89078 z m 115.02088,1.66811 a 130.0238,130.0238 0 0 1 5.68338,3.1595 130.0238,130.0238 0 0 0 -5.68338,-3.1595 z m -126.45119,4.48293 a 130.0238,130.0238 0 0 0 -5.519044,3.46129 130.0238,130.0238 0 0 1 5.519044,-3.46129 z m 137.70218,2.01332 a 130.0238,130.0238 0 0 1 5.33456,3.70726 130.0238,130.0238 0 0 0 -5.33456,-3.70726 z m -148.462247,5.24929 a 130.0238,130.0238 0 0 0 -5.145939,3.99407 130.0238,130.0238 0 0 1 5.145939,-3.99407 z m 159.002697,2.33371 a 130.0238,130.0238 0 0 1 4.94285,4.22558 130.0238,130.0238 0 0 0 -4.94285,-4.22558 z m -168.984,5.96604 a 130.0238,130.0238 0 0 0 -4.723743,4.49068 130.0238,130.0238 0 0 1 4.723743,-4.49068 z m 178.72035,2.63601 a 130.0238,130.0238 0 0 1 4.48913,4.69119 130.0238,130.0238 0 0 0 -4.48913,-4.69119 z m -187.822635,6.61821 a 130.0238,130.0238 0 0 0 -4.2524552,4.94078 130.0238,130.0238 0 0 1 4.2524552,-4.94078 z m 196.647935,2.90938 a 130.0238,130.0238 0 0 1 4.00131,5.11907 130.0238,130.0238 0 0 0 -4.00131,-5.11907 z M 5.2021958,78.668845 a 130.0238,130.0238 0 0 0 -3.7346556,5.33508 130.0238,130.0238 0 0 1 3.7346556,-5.33508 z M 217.8166,81.818525 a 130.0238,130.0238 0 0 1 3.47163,5.49527 130.0238,130.0238 0 0 0 -3.47163,-5.49527 z m -219.7002762,7.73441 a 130.0238,130.0238 0 0 0 -3.1806846,5.67717 130.0238,130.0238 0 0 1 3.1806846,-5.67717 z m 226.4564562,3.35484 a 130.0238,130.0238 0 0 1 2.90835,5.81928 130.0238,130.0238 0 0 0 -2.90835,-5.81928 z M -7.8450694,101.0866 a 130.0238,130.0238 0 0 0 -2.5967406,5.96294 130.0238,130.0238 0 0 1 2.5967406,-5.96294 z m 238.0355994,3.53518 a 130.0238,130.0238 0 0 1 2.30838,6.0694 130.0238,130.0238 0 0 0 -2.30838,-6.0694 z m -242.81722,8.54056 a 130.0238,130.0238 0 0 0 -1.986442,6.18567 130.0238,130.0238 0 0 1 1.986442,-6.18567 z m 247.23607,3.67265 a 130.0238,130.0238 0 0 1 1.69188,6.273 130.0238,130.0238 0 0 0 -1.69188,-6.273 z m -250.785724,8.81135 a 130.0238,130.0238 0 0 0 -1.36064,6.36137 130.0238,130.0238 0 0 1 1.36064,-6.36137 z M 109.91932,126.71604 65.750439,194.11192 50.841787,162.53969 2.5672148,227.40601 A 130.0238,130.0238 0 0 0 110.80608,284.9038 130.0238,130.0238 0 0 0 217.79645,228.11191 l -48.79961,-65.57222 -14.90916,31.57223 z M 2.5672148,227.40601 a 130.0238,130.0238 0 0 1 -4.626591,-7.53494 130.0238,130.0238 0 0 0 4.626591,7.53494 z M 237.78696,129.42802 a 130.0238,130.0238 0 0 1 1.0573,6.41304 130.0238,130.0238 0 0 0 -1.0573,-6.41304 z m -256.249469,8.99531 a 130.0238,130.0238 0 0 0 -0.718819,6.46524 130.0238,130.0238 0 0 1 0.718819,-6.46524 z m 258.153749,3.85145 a 130.0238,130.0238 0 0 1 0.68988,10.85877 130.0238,130.0238 0 0 0 -0.68988,-10.85877 z m -259.342824,13.4798 a 130.0238,130.0238 0 0 0 0.643889,11.08356 130.0238,130.0238 0 0 1 -0.643889,-11.08356 z m 259.401214,11.97911 a 130.0238,130.0238 0 0 1 -1.20923,8.08736 130.0238,130.0238 0 0 0 1.20923,-8.08736 z m -258.065895,4.64313 a 130.0238,130.0238 0 0 0 1.207162,7.57214 130.0238,130.0238 0 0 1 -1.207162,-7.57214 z m 256.138885,8.19226 a 130.0238,130.0238 0 0 1 -2.35903,9.29866 130.0238,130.0238 0 0 0 2.35903,-9.29866 z m -253.860471,4.0783 a 130.0238,130.0238 0 0 0 2.150773,8.14886 130.0238,130.0238 0 0 1 -2.150773,-8.14886 z m 250.665311,8.49406 a 130.0238,130.0238 0 0 1 -3.7052,10.20093 130.0238,130.0238 0 0 0 3.7052,-10.20093 z m -247.22056,3.50625 a 130.0238,130.0238 0 0 0 3.216341,8.59534 130.0238,130.0238 0 0 1 -3.216341,-8.59534 z m 242.78621,8.69146 a 130.0238,130.0238 0 0 1 -5.06222,10.52183 130.0238,130.0238 0 0 0 5.06222,-10.52183 z M -8.0031995,208.2847 a 130.0238,130.0238 0 0 0 4.3728597,8.86974 130.0238,130.0238 0 0 1 -4.3728597,-8.86974 z m 232.5651295,8.75451 a 130.0238,130.0238 0 0 1 -6.72259,11.00294 130.0238,130.0238 0 0 0 6.72259,-11.00294 z"
        id="path5698"
        inkscape:connector-curvature="0" />
  </g>
</svg>