<?xml version="1.0" encoding="UTF-8"?>
<svg width="24px" height="24px" version="1.1" viewBox="0 0 24 24" xmlns="http://www.w3.org/2000/svg" xmlns:cc="http://creativecommons.org/ns#" xmlns:dc="http://purl.org/dc/elements/1.1/" xmlns:rdf="http://www.w3.org/1999/02/22-rdf-syntax-ns#">
 <metadata>
  <rdf:RDF>
   <cc:Work rdf:about="">
    <dc:format>image/svg+xml</dc:format>
    <dc:type rdf:resource="http://purl.org/dc/dcmitype/StillImage"/>
    <dc:title/>
   </cc:Work>
  </rdf:RDF>
 </metadata>
 <path d="m12 8v5l4.28 2.54 0.72-1.21-3.5-2.08v-4.25z" fill="#faac00"/>
 <path d="m13 3c-4.97 0-9 4.03-9 9h-3l3.89 3.89 0.07 0.14 4.04-4.03h-3c0-3.87 3.13-7 7-7s7 3.13 7 7-3.13 7-7 7c-1.93 0-3.68-0.79-4.94-2.06l-1.42 1.42c1.63 1.63 3.87 2.64 6.36 2.64 4.97 0 9-4.03 9-9s-4.03-9-9-9z" fill="#333831"/>
</svg>
