<?xml version="1.0" encoding="UTF-8"?>
<svg width="424.4" height="424.4" version="1.1" viewBox="0 0 424.4 424.4" xmlns="http://www.w3.org/2000/svg" xmlns:cc="http://creativecommons.org/ns#" xmlns:dc="http://purl.org/dc/elements/1.1/" xmlns:rdf="http://www.w3.org/1999/02/22-rdf-syntax-ns#">
 <metadata>
  <rdf:RDF>
   <cc:Work rdf:about="">
    <dc:format>image/svg+xml</dc:format>
    <dc:type rdf:resource="http://purl.org/dc/dcmitype/StillImage"/>
    <dc:title/>
   </cc:Work>
  </rdf:RDF>
 </metadata>
 <path d="m416.3 212.2a204.1 204.1 0 0 1-203.42 204.1 204.1 204.1 0 0 1-204.79-202.73 204.1 204.1 0 0 1 202.04-205.47 204.1 204.1 0 0 1 206.14 201.35" fill-opacity="0" stroke-opacity="0" style="paint-order:markers fill stroke"/>
 <g transform="rotate(90 184.96 225.75)" fill="#0062ff" data-name="Layer 1">
  <g fill="#333831" stroke="#faac00" stroke-linecap="round" stroke-width="7.7">
   <path class="cls-3" d="m30.778 63.712a38.4 38.4 0 1 0 38.4 38.4 38.4 38.4 0 0 0-38.4-38.4zm0 64a25.6 25.6 0 1 1 25.6-25.6 25.6 25.6 0 0 1-25.6 25.6z" stroke-dasharray="61.59999847, 61.59999847000000273" stroke-linejoin="round"/>
   <path class="cls-4" d="m324.46 22.292a38.4 38.4 0 1 0 38.4 38.4 38.4 38.4 0 0 0-38.4-38.4zm0 64a25.6 25.6 0 1 1 25.6-25.6 25.6 25.6 0 0 1-25.6 25.6z" stroke-dasharray="61.59999847, 61.59999847000000273"/>
   <path class="cls-7" d="m185.1 302.81a38.4 38.4 0 1 0 38.4 38.4 38.4 38.4 0 0 0-38.4-38.4zm0 64a25.6 25.6 0 1 1 25.6-25.6 25.6 25.6 0 0 1-25.6 25.6z" stroke-dasharray="61.6, 61.60000000000000142" stroke-linejoin="round"/>
  </g>
 </g>
 <g fill="#f00" stroke="#630300" stroke-dasharray="46.19999886, 46.19999886" stroke-linecap="round" stroke-width="7.7">
  <path class="cls-6" d="m209.75 154.52h-51.2a6.41 6.41 0 0 0-6.4 6.4v51.2a6.4 6.4 0 0 0 6.4 6.4h51.2a6.4 6.4 0 0 0 6.4-6.4v-51.2a6.41 6.41 0 0 0-6.4-6.4zm-6.4 51.2h-38.4v-38.4h38.4z"/>
  <path class="cls-6" d="m227.77 241.59h-51.2a6.41 6.41 0 0 0-6.4 6.4v51.2a6.4 6.4 0 0 0 6.4 6.4h51.2a6.4 6.4 0 0 0 6.4-6.4v-51.2a6.41 6.41 0 0 0-6.4-6.4zm-6.4 51.2h-38.4v-38.4h38.4z"/>
  <path class="cls-6" d="m308.31 174.86h-51.2a6.41 6.41 0 0 0-6.4 6.4v51.2a6.4 6.4 0 0 0 6.4 6.4h51.2a6.4 6.4 0 0 0 6.4-6.4v-51.2a6.41 6.41 0 0 0-6.4-6.4zm-6.4 51.2h-38.4v-38.4h38.4z"/>
 </g>
 <g stroke="#333831" stroke-width="10.5">
  <path d="m82.839 177.03c30.576-52.389 95.237-90.989 157.03-98.704" fill="none" stroke-dasharray="21,42" stroke-linecap="round" stroke-linejoin="round"/>
  <path d="m90.893 282.88c42.997 81.154 123.52 99.357 194.44 96.646" fill="none" stroke-dasharray="42,42"/>
  <path transform="rotate(4.8635 194.83 15.775)" d="m224.29 102.87-5.6591-49.658 45.835 19.928-20.088 14.865z" fill="#faac00" stroke-dasharray="84, 21, 10.50000000000000000, 21" stroke-linecap="round" stroke-linejoin="round" style="paint-order:stroke fill markers"/>
  <path transform="rotate(4.8635 -3284.2 666.84)" d="m224.29 102.87-5.6591-49.658 45.835 19.928-20.088 14.865z" fill="#faac00" stroke-dasharray="84, 21, 10.50000000000000000, 21" stroke-linecap="round" stroke-linejoin="round" style="paint-order:stroke fill markers"/>
 </g>
</svg>
