<?xml version="1.0" encoding="UTF-8" standalone="no"?>

<svg
        xmlns:dc="http://purl.org/dc/elements/1.1/"
        xmlns:cc="http://creativecommons.org/ns#"
        xmlns:rdf="http://www.w3.org/1999/02/22-rdf-syntax-ns#"
        xmlns:svg="http://www.w3.org/2000/svg"
        xmlns="http://www.w3.org/2000/svg"
        xmlns:xlink="http://www.w3.org/1999/xlink"
        xmlns:sodipodi="http://sodipodi.sourceforge.net/DTD/sodipodi-0.dtd"
        xmlns:inkscape="http://www.inkscape.org/namespaces/inkscape"
        viewBox="0 0 424.39642 424.39575"
        version="1.1"
        id="svg41"
        sodipodi:docname="strategy.svg"
        width="424.39642"
        height="424.39575"
        inkscape:version="0.92.4 (f8dce91, 2019-08-02)">
    <metadata
            id="metadata45">
        <rdf:RDF>
            <cc:Work
                    rdf:about="">
                <dc:format>image/svg+xml</dc:format>
                <dc:type
                        rdf:resource="http://purl.org/dc/dcmitype/StillImage" />
                <dc:title>Middel 5</dc:title>
            </cc:Work>
        </rdf:RDF>
    </metadata>
    <sodipodi:namedview
            pagecolor="#ffffff"
            bordercolor="#666666"
            borderopacity="1"
            objecttolerance="10"
            gridtolerance="10"
            guidetolerance="10"
            inkscape:pageopacity="0"
            inkscape:pageshadow="2"
            inkscape:window-width="1018"
            inkscape:window-height="682"
            id="namedview43"
            showgrid="false"
            showguides="false"
            fit-margin-top="0"
            fit-margin-left="0"
            fit-margin-right="0"
            fit-margin-bottom="0"
            inkscape:zoom="0.30729167"
            inkscape:cx="-131.29522"
            inkscape:cy="-87.362486"
            inkscape:window-x="242"
            inkscape:window-y="211"
            inkscape:window-maximized="0"
            inkscape:current-layer="svg41" />
    <path
            style="fill:#000000;fill-opacity:0;stroke:#353272;stroke-width:16.18600082;stroke-linecap:round;stroke-linejoin:round;stroke-miterlimit:4;stroke-dasharray:194.23200989, 194.23200989;stroke-dashoffset:0;stroke-opacity:0;paint-order:markers fill stroke"
            id="path1190"
            sodipodi:type="arc"
            sodipodi:cx="212.19786"
            sodipodi:cy="212.19797"
            sodipodi:rx="204.10477"
            sodipodi:ry="204.10477"
            sodipodi:start="0"
            sodipodi:end="6.2697463"
            sodipodi:open="true"
            d="M 416.30263,212.19797 A 204.10477,204.10477 0 0 1 212.8836,416.30158 204.10477,204.10477 0 0 1 8.0977017,213.56944 204.10477,204.10477 0 0 1 210.14067,8.1035682 204.10477,204.10477 0 0 1 416.2842,209.45508" />
    <g
            style="fill:#0062ff;fill-opacity:1"
            data-name="Layer 1"
            id="Layer_1"
            transform="translate(23.508291,37.597452)">
        <path
                inkscape:connector-curvature="0"
                style="fill:#0f0f0f;fill-opacity:1;stroke:#f140ff;stroke-width:4.4000001;stroke-miterlimit:4;stroke-dasharray:none;stroke-opacity:1"
                id="path23"
                d="m 134.4,307.2 h -19.2 a 32,32 0 0 1 -32,-32 V 149.85 l 21.07,21.08 a 6.4,6.4 0 0 0 9,-9.05 l -32,-32 a 6.4,6.4 0 0 0 -9,0 l -32,32 a 6.4,6.4 0 0 0 9,9.05 L 70.4,149.85 V 275.2 a 44.85,44.85 0 0 0 44.8,44.8 h 19.2 a 6.4,6.4 0 0 0 0,-12.8 z"
                class="cls-2" />
        <path
                inkscape:connector-curvature="0"
                style="fill:#000000;fill-opacity:1;stroke:#f140ff;stroke-width:7.69999981;stroke-linecap:round;stroke-linejoin:round;stroke-miterlimit:4;stroke-dasharray:61.59999847, 61.59999847;stroke-dashoffset:0;stroke-opacity:1"
                id="path25"
                d="M 76.8,38.4 A 38.4,38.4 0 1 0 115.2,76.8 38.4,38.4 0 0 0 76.8,38.4 Z m 0,64 a 25.6,25.6 0 1 1 25.6,-25.6 25.6,25.6 0 0 1 -25.6,25.6 z"
                class="cls-3" />
        <path
                inkscape:connector-curvature="0"
                style="fill:#000000;fill-opacity:1;stroke:#f140ff;stroke-width:7.69999981;stroke-linecap:round;stroke-miterlimit:4;stroke-dasharray:61.59999847, 61.59999847;stroke-dashoffset:0;stroke-opacity:1"
                id="path27"
                d="m 307.2,38.4 a 38.4,38.4 0 1 0 38.4,38.4 38.4,38.4 0 0 0 -38.4,-38.4 z m 0,64 a 25.6,25.6 0 1 1 25.6,-25.6 25.6,25.6 0 0 1 -25.6,25.6 z"
                class="cls-4" />
        <path
                inkscape:connector-curvature="0"
                style="fill:#ff0000;fill-opacity:1;stroke:#630300;stroke-width:7.69999981;stroke-linecap:round;stroke-miterlimit:4;stroke-dasharray:46.19999886, 46.19999886;stroke-dashoffset:0;stroke-opacity:1"
                id="path31"
                d="m 232.32583,92.242482 h -51.2 a 6.41,6.41 0 0 0 -6.4,6.399997 v 51.200001 a 6.4,6.4 0 0 0 6.4,6.4 h 51.2 a 6.4,6.4 0 0 0 6.4,-6.4 V 98.642479 a 6.41,6.41 0 0 0 -6.4,-6.399997 z m -6.4,51.199998 h -38.4 v -38.4 h 38.4 z"
                class="cls-6" />
        <path
                inkscape:connector-curvature="0"
                style="fill:#000000;fill-opacity:1;stroke:#f140ff;stroke-width:7.69999981;stroke-linecap:round;stroke-linejoin:round;stroke-miterlimit:4;stroke-dasharray:61.6, 61.6;stroke-dashoffset:0;stroke-opacity:1"
                id="path33"
                d="m 192,275.2 a 38.4,38.4 0 1 0 38.4,38.4 38.4,38.4 0 0 0 -38.4,-38.4 z m 0,64 a 25.6,25.6 0 1 1 25.6,-25.6 25.6,25.6 0 0 1 -25.6,25.6 z"
                class="cls-7" />
        <path
                inkscape:connector-curvature="0"
                style="fill:#0f0f0f;fill-opacity:1;stroke:#f140ff;stroke-width:4.4000001;stroke-miterlimit:4;stroke-dasharray:none;stroke-opacity:1"
                id="path37"
                d="m 343.73,161.88 -32,-32 a 6.4,6.4 0 0 0 -9.05,0 l -32,32 a 6.4,6.4 0 0 0 9.05,9.05 L 300.8,149.85 V 275.2 a 32,32 0 0 1 -32,32 h -19.2 a 6.4,6.4 0 0 0 0,12.8 h 19.2 a 44.85,44.85 0 0 0 44.8,-44.8 V 149.85 l 21.08,21.08 a 6.4,6.4 0 0 0 9.05,-9.05 z"
                class="cls-9" />
    </g>
    <path
            inkscape:connector-curvature="0"
            style="fill:#ff0000;fill-opacity:1;stroke:#630300;stroke-width:7.69999981;stroke-linecap:round;stroke-miterlimit:4;stroke-dasharray:46.19999886, 46.19999886;stroke-dashoffset:0;stroke-opacity:1"
            id="path31-6"
            d="m 189.0405,215.49576 h -51.2 a 6.41,6.41 0 0 0 -6.4,6.4 v 51.2 a 6.4,6.4 0 0 0 6.4,6.4 h 51.2 a 6.4,6.4 0 0 0 6.4,-6.4 v -51.2 a 6.41,6.41 0 0 0 -6.4,-6.4 z m -6.4,51.2 h -38.4 v -38.4 h 38.4 z"
            class="cls-6" />
    <path
            inkscape:connector-curvature="0"
            style="fill:#ff0000;fill-opacity:1;stroke:#630300;stroke-width:7.69999981;stroke-linecap:round;stroke-miterlimit:4;stroke-dasharray:46.19999886, 46.19999886;stroke-dashoffset:0;stroke-opacity:1"
            id="path31-7"
            d="m 276.09135,235.83474 h -51.2 a 6.41,6.41 0 0 0 -6.4,6.4 v 51.2 a 6.4,6.4 0 0 0 6.4,6.4 h 51.2 a 6.4,6.4 0 0 0 6.4,-6.4 v -51.2 a 6.41,6.41 0 0 0 -6.4,-6.4 z m -6.4,51.2 h -38.4 v -38.4 h 38.4 z"
            class="cls-6" />
</svg>
