<?xml version="1.0" encoding="UTF-8" standalone="no"?>
<svg
   xmlns:dc="http://purl.org/dc/elements/1.1/"
   xmlns:cc="http://creativecommons.org/ns#"
   xmlns:rdf="http://www.w3.org/1999/02/22-rdf-syntax-ns#"
   xmlns:svg="http://www.w3.org/2000/svg"
   xmlns="http://www.w3.org/2000/svg"
   xmlns:sodipodi="http://sodipodi.sourceforge.net/DTD/sodipodi-0.dtd"
   xmlns:inkscape="http://www.inkscape.org/namespaces/inkscape"
   viewBox="0 0 424.39642 424.39575"
   version="1.1"
   id="svg41"
   sodipodi:docname="StrategyIcon.svg"
   width="424.39642"
   height="424.39575"
   inkscape:version="0.92.4 (f8dce91, 2019-08-02)">
  <defs
     id="defs15">
    <marker
       inkscape:isstock="true"
       style="overflow:visible;"
       id="marker3134"
       refX="0.0"
       refY="0.0"
       orient="auto"
       inkscape:stockid="Arrow2Lend">
      <path
         transform="scale(1.1) rotate(180) translate(1,0)"
         d="M 8.7185878,4.0337352 L -2.2072895,0.016013256 L 8.7185884,-4.0017078 C 6.9730900,-1.6296469 6.9831476,1.6157441 8.7185878,4.0337352 z "
         style="fill-rule:evenodd;stroke-width:0.625;stroke-linejoin:round;stroke:#000000;stroke-opacity:1;fill:#000000;fill-opacity:1"
         id="path3132" />
    </marker>
    <marker
       inkscape:stockid="Arrow1Lend"
       orient="auto"
       refY="0.0"
       refX="0.0"
       id="Arrow1Lend"
       style="overflow:visible;"
       inkscape:isstock="true">
      <path
         id="path852"
         d="M 0.0,0.0 L 5.0,-5.0 L -12.5,0.0 L 5.0,5.0 L 0.0,0.0 z "
         style="fill-rule:evenodd;stroke:#000000;stroke-width:1pt;stroke-opacity:1;fill:#000000;fill-opacity:1"
         transform="scale(0.8) rotate(180) translate(12.5,0)" />
    </marker>
    <marker
       inkscape:stockid="Arrow1Lstart"
       orient="auto"
       refY="0.0"
       refX="0.0"
       id="Arrow1Lstart"
       style="overflow:visible"
       inkscape:isstock="true">
      <path
         id="path849"
         d="M 0.0,0.0 L 5.0,-5.0 L -12.5,0.0 L 5.0,5.0 L 0.0,0.0 z "
         style="fill-rule:evenodd;stroke:#000000;stroke-width:1pt;stroke-opacity:1;fill:#000000;fill-opacity:1"
         transform="scale(0.8) translate(12.5,0)" />
    </marker>
    <marker
       inkscape:stockid="Torso"
       orient="auto"
       refY="0.0"
       refX="0.0"
       id="Torso"
       style="overflow:visible"
       inkscape:isstock="true">
      <g
         id="g1075"
         transform="scale(0.7)"
         style="stroke:#000000;stroke-opacity:1;fill:#000000;fill-opacity:1">
        <path
           id="path1061"
           d="M -4.7792281,-3.2395420 C -2.4288541,-2.8736027 0.52103922,-1.3019943 0.25792722,0.38794346 C -0.0051877922,2.0778819 -2.2126741,2.6176539 -4.5630471,2.2517169 C -6.9134221,1.8857769 -8.5210350,0.75201414 -8.2579220,-0.93792336 C -7.9948090,-2.6278615 -7.1296041,-3.6054813 -4.7792281,-3.2395420 z "
           style="fill:#000000;fill-opacity:1;fill-rule:evenodd;stroke:#000000;stroke-width:1.25;stroke-opacity:1" />
        <path
           id="path1063"
           d="M 4.4598789,0.088665736 C -2.5564571,-4.3783320 5.2248769,-3.9061806 -0.84829578,-8.7197331"
           style="fill:#000000;fill-opacity:1;fill-rule:evenodd;stroke:#000000;stroke-width:1pt;stroke-opacity:1" />
        <path
           id="path1065"
           d="M 4.9298719,0.057520736 C -1.3872731,1.7494689 1.8027579,5.4782079 -4.9448731,7.5462725"
           style="fill:#000000;fill-opacity:1;fill-rule:evenodd;stroke:#000000;stroke-width:1pt;stroke-opacity:1" />
        <rect
           id="rect1067"
           transform="matrix(0.527536,-0.849533,0.887668,0.460484,0,0)"
           y="-1.7408575"
           x="-10.391706"
           height="2.7608147"
           width="2.6366582"
           style="fill-rule:evenodd;stroke-width:1pt;stroke:#000000;stroke-opacity:1;fill:#000000;fill-opacity:1" />
        <rect
           id="rect1069"
           transform="matrix(0.671205,-0.741272,0.790802,0.612072,0,0)"
           y="-7.9629307"
           x="4.9587269"
           height="2.8614161"
           width="2.7327356"
           style="fill-rule:evenodd;stroke-width:1pt;stroke:#000000;stroke-opacity:1;fill:#000000;fill-opacity:1" />
        <path
           id="path1071"
           transform="matrix(0,-1.109517,1.109517,0,25.96648,19.71619)"
           d="M 16.779951 -28.685045 A 0.60731727 0.60731727 0 1 0 15.565317,-28.685045 A 0.60731727 0.60731727 0 1 0 16.779951 -28.685045 z"
           style="fill:#000000;fill-opacity:1;fill-rule:evenodd;stroke:#000000;stroke-width:1pt;stroke-opacity:1" />
        <path
           id="path1073"
           transform="matrix(0,-1.109517,1.109517,0,26.82450,16.99126)"
           d="M 16.779951 -28.685045 A 0.60731727 0.60731727 0 1 0 15.565317,-28.685045 A 0.60731727 0.60731727 0 1 0 16.779951 -28.685045 z"
           style="fill:#000000;fill-opacity:1;fill-rule:evenodd;stroke:#000000;stroke-width:1pt;stroke-opacity:1" />
      </g>
    </marker>
    <marker
       inkscape:stockid="Tail"
       orient="auto"
       refY="0.0"
       refX="0.0"
       id="Tail"
       style="overflow:visible"
       inkscape:isstock="true">
      <g
         id="g897"
         transform="scale(-1.2)"
         style="stroke:#000000;stroke-opacity:1;fill:#000000;fill-opacity:1">
        <path
           id="path885"
           d="M -3.8048674,-3.9585227 L 0.54352094,0"
           style="fill:#000000;fill-rule:evenodd;stroke:#000000;stroke-width:0.8;stroke-linecap:round;stroke-opacity:1;fill-opacity:1" />
        <path
           id="path887"
           d="M -1.2866832,-3.9585227 L 3.0617053,0"
           style="fill:#000000;fill-rule:evenodd;stroke:#000000;stroke-width:0.8;stroke-linecap:round;stroke-opacity:1;fill-opacity:1" />
        <path
           id="path889"
           d="M 1.3053582,-3.9585227 L 5.6537466,0"
           style="fill:#000000;fill-rule:evenodd;stroke:#000000;stroke-width:0.8;stroke-linecap:round;stroke-opacity:1;fill-opacity:1" />
        <path
           id="path891"
           d="M -3.8048674,4.1775838 L 0.54352094,0.21974226"
           style="fill:#000000;fill-rule:evenodd;stroke:#000000;stroke-width:0.8;stroke-linecap:round;stroke-opacity:1;fill-opacity:1" />
        <path
           id="path893"
           d="M -1.2866832,4.1775838 L 3.0617053,0.21974226"
           style="fill:#000000;fill-rule:evenodd;stroke:#000000;stroke-width:0.8;stroke-linecap:round;stroke-opacity:1;fill-opacity:1" />
        <path
           id="path895"
           d="M 1.3053582,4.1775838 L 5.6537466,0.21974226"
           style="fill:#000000;fill-rule:evenodd;stroke:#000000;stroke-width:0.8;stroke-linecap:round;stroke-opacity:1;fill-opacity:1" />
      </g>
    </marker>
    <marker
       inkscape:stockid="Arrow2Lend"
       orient="auto"
       refY="0.0"
       refX="0.0"
       id="Arrow2Lend"
       style="overflow:visible;"
       inkscape:isstock="true">
      <path
         id="path870"
         style="fill-rule:evenodd;stroke-width:0.625;stroke-linejoin:round;stroke:#000000;stroke-opacity:1;fill:#000000;fill-opacity:1"
         d="M 8.7185878,4.0337352 L -2.2072895,0.016013256 L 8.7185884,-4.0017078 C 6.9730900,-1.6296469 6.9831476,1.6157441 8.7185878,4.0337352 z "
         transform="scale(1.1) rotate(180) translate(1,0)" />
    </marker>
  </defs>
  <metadata
     id="metadata45">
    <rdf:RDF>
      <cc:Work
         rdf:about="">
        <dc:format>image/svg+xml</dc:format>
        <dc:type
           rdf:resource="http://purl.org/dc/dcmitype/StillImage" />
        <dc:title>Middel 5</dc:title>
      </cc:Work>
    </rdf:RDF>
  </metadata>
  <sodipodi:namedview
     pagecolor="#ffffff"
     bordercolor="#666666"
     borderopacity="1"
     objecttolerance="10"
     gridtolerance="10"
     guidetolerance="10"
     inkscape:pageopacity="0"
     inkscape:pageshadow="2"
     inkscape:window-width="1018"
     inkscape:window-height="683"
     id="namedview43"
     showgrid="false"
     showguides="false"
     fit-margin-top="0"
     fit-margin-left="0"
     fit-margin-right="0"
     fit-margin-bottom="0"
     inkscape:zoom="1.7383042"
     inkscape:cx="252.58743"
     inkscape:cy="68.013214"
     inkscape:window-x="819"
     inkscape:window-y="192"
     inkscape:window-maximized="0"
     inkscape:current-layer="svg41" />
  <path
     style="fill:#000000;fill-opacity:0;stroke:#353272;stroke-width:16.18600082;stroke-linecap:round;stroke-linejoin:round;stroke-miterlimit:4;stroke-dasharray:194.23200989, 194.23200989;stroke-dashoffset:0;stroke-opacity:0;paint-order:markers fill stroke"
     id="path1190"
     sodipodi:type="arc"
     sodipodi:cx="212.19786"
     sodipodi:cy="212.19797"
     sodipodi:rx="204.10477"
     sodipodi:ry="204.10477"
     sodipodi:start="0"
     sodipodi:end="6.2697463"
     sodipodi:open="true"
     d="M 416.30263,212.19797 A 204.10477,204.10477 0 0 1 212.8836,416.30158 204.10477,204.10477 0 0 1 8.0977017,213.56944 204.10477,204.10477 0 0 1 210.14067,8.1035682 204.10477,204.10477 0 0 1 416.2842,209.45508" />
  <g
     style="fill:#0062ff;fill-opacity:1"
     data-name="Layer 1"
     id="Layer_1"
     transform="rotate(90,184.95697,225.75132)">
    <g
       id="g830">
      <g
         id="g837">
        <path
           inkscape:connector-curvature="0"
           style="fill:#000000;fill-opacity:1;stroke:#faac00;stroke-width:7.69999981;stroke-linecap:round;stroke-linejoin:round;stroke-miterlimit:4;stroke-dasharray:61.59999847, 61.59999847;stroke-dashoffset:0;stroke-opacity:1"
           id="path25"
           d="m 30.778135,63.712026 a 38.4,38.4 0 1 0 38.4,38.400004 38.4,38.4 0 0 0 -38.4,-38.400004 z m 0,64.000004 a 25.6,25.6 0 1 1 25.6,-25.6 25.6,25.6 0 0 1 -25.6,25.6 z"
           class="cls-3" />
        <path
           inkscape:connector-curvature="0"
           style="fill:#000000;fill-opacity:1;stroke:#faac00;stroke-width:7.69999981;stroke-linecap:round;stroke-miterlimit:4;stroke-dasharray:61.59999847, 61.59999847;stroke-dashoffset:0;stroke-opacity:1"
           id="path27"
           d="m 324.4582,22.292347 a 38.4,38.4 0 1 0 38.4,38.4 38.4,38.4 0 0 0 -38.4,-38.4 z m 0,64 a 25.6,25.6 0 1 1 25.6,-25.6 25.6,25.6 0 0 1 -25.6,25.6 z"
           class="cls-4" />
        <path
           inkscape:connector-curvature="0"
           style="fill:#000000;fill-opacity:1;stroke:#faac00;stroke-width:7.69999981;stroke-linecap:round;stroke-linejoin:round;stroke-miterlimit:4;stroke-dasharray:61.6, 61.6;stroke-dashoffset:0;stroke-opacity:1"
           id="path33"
           d="m 185.09672,302.81312 a 38.4,38.4 0 1 0 38.4,38.4 38.4,38.4 0 0 0 -38.4,-38.4 z m 0,64 a 25.6,25.6 0 1 1 25.6,-25.6 25.6,25.6 0 0 1 -25.6,25.6 z"
           class="cls-7" />
      </g>
    </g>
  </g>
  <path
     inkscape:connector-curvature="0"
     style="fill:#ff0000;fill-opacity:1;stroke:#630300;stroke-width:7.69999981;stroke-linecap:round;stroke-miterlimit:4;stroke-dasharray:46.19999886, 46.19999886;stroke-dashoffset:0;stroke-opacity:1"
     id="path31-6"
     d="m 209.75034,154.51679 h -51.2 a 6.41,6.41 0 0 0 -6.4,6.4 v 51.2 a 6.4,6.4 0 0 0 6.4,6.4 h 51.2 a 6.4,6.4 0 0 0 6.4,-6.4 v -51.2 a 6.41,6.41 0 0 0 -6.4,-6.4 z m -6.4,51.2 h -38.4 v -38.4 h 38.4 z"
     class="cls-6" />
  <path
     inkscape:connector-curvature="0"
     style="fill:#ff0000;fill-opacity:1;stroke:#630300;stroke-width:7.69999981;stroke-linecap:round;stroke-miterlimit:4;stroke-dasharray:46.19999886, 46.19999886;stroke-dashoffset:0;stroke-opacity:1"
     id="path31-7"
     d="m 227.76839,241.58747 h -51.2 a 6.41,6.41 0 0 0 -6.4,6.4 v 51.2 a 6.4,6.4 0 0 0 6.4,6.4 h 51.2 a 6.4,6.4 0 0 0 6.4,-6.4 v -51.2 a 6.41,6.41 0 0 0 -6.4,-6.4 z m -6.4,51.2 h -38.4 v -38.4 h 38.4 z"
     class="cls-6" />
  <path
     class="cls-6"
     d="m 308.30666,174.85577 h -51.2 a 6.41,6.41 0 0 0 -6.4,6.4 v 51.2 a 6.4,6.4 0 0 0 6.4,6.4 h 51.2 a 6.4,6.4 0 0 0 6.4,-6.4 v -51.2 a 6.41,6.41 0 0 0 -6.4,-6.4 z m -6.4,51.2 h -38.4 v -38.4 h 38.4 z"
     id="path839"
     style="fill:#ff0000;fill-opacity:1;stroke:#630300;stroke-width:7.69999981;stroke-linecap:round;stroke-miterlimit:4;stroke-dasharray:46.19999886, 46.19999886;stroke-dashoffset:0;stroke-opacity:1"
     inkscape:connector-curvature="0" />
  <path
     style="fill:none;stroke:#000000;stroke-width:10.5;stroke-linecap:round;stroke-linejoin:round;stroke-miterlimit:4;stroke-dasharray:21,42;stroke-dashoffset:0;stroke-opacity:1"
     d="M 82.839356,177.02823 C 113.41488,124.63958 178.07667,86.039615 239.86998,78.324466"
     id="path847"
     inkscape:connector-curvature="0"
     sodipodi:nodetypes="cc" />
  <path
     style="fill:none;stroke:#000000;stroke-width:10.5;stroke-linecap:butt;stroke-linejoin:miter;stroke-opacity:1;stroke-miterlimit:4;stroke-dasharray:42,42;stroke-dashoffset:0"
     d="M 90.893183,282.87852 C 133.89011,364.03258 214.4164,382.2354 285.33556,379.52444"
     id="path3118"
     inkscape:connector-curvature="0"
     sodipodi:nodetypes="cc" />
  <path
     sodipodi:type="star"
     style="fill:#faac00;fill-opacity:1;stroke:#000000;stroke-width:10.5;stroke-linecap:round;stroke-linejoin:round;stroke-miterlimit:4;stroke-dasharray:84,21,10.5,21;stroke-dashoffset:0;stroke-opacity:1;paint-order:stroke fill markers"
     id="path4120"
     sodipodi:sides="3"
     sodipodi:cx="235.79227"
     sodipodi:cy="76.408257"
     sodipodi:r1="28.855562"
     sodipodi:r2="14.427781"
     sodipodi:arg1="1.9809237"
     sodipodi:arg2="3.0281212"
     inkscape:flatsided="false"
     inkscape:rounded="0"
     inkscape:randomized="0"
     d="m 224.2868,102.87083 -2.82953,-24.828943 -2.82953,-24.828943 22.91726,9.964026 22.91726,9.964027 -20.08773,14.864915 z"
     inkscape:transform-center-x="-7.6673667"
     inkscape:transform-center-y="-2.0282934"
     transform="rotate(4.8635434,194.83415,15.775028)" />
  <path
     sodipodi:type="star"
     style="fill:#faac00;fill-opacity:1;stroke:#000000;stroke-width:10.5;stroke-linecap:round;stroke-linejoin:round;stroke-miterlimit:4;stroke-dasharray:84, 21, 10.5, 21;stroke-dashoffset:0;stroke-opacity:1;paint-order:stroke fill markers"
     id="path4120-3"
     sodipodi:sides="3"
     sodipodi:cx="235.79227"
     sodipodi:cy="76.408257"
     sodipodi:r1="28.855562"
     sodipodi:r2="14.427781"
     sodipodi:arg1="1.9809237"
     sodipodi:arg2="3.0281212"
     inkscape:flatsided="false"
     inkscape:rounded="0"
     inkscape:randomized="0"
     d="m 224.2868,102.87083 -2.82953,-24.828943 -2.82953,-24.828943 22.91726,9.964026 22.91726,9.964027 -20.08773,14.864915 z"
     inkscape:transform-center-x="-7.6673667"
     inkscape:transform-center-y="-2.0282934"
     transform="rotate(4.8635434,-3284.1827,666.84404)" />
</svg>
