<?xml version="1.0" encoding="UTF-8"?>
<svg width="290.34mm" height="311.29mm" version="1.1" viewBox="0 0 290.34 311.29" xmlns="http://www.w3.org/2000/svg" xmlns:cc="http://creativecommons.org/ns#" xmlns:dc="http://purl.org/dc/elements/1.1/" xmlns:rdf="http://www.w3.org/1999/02/22-rdf-syntax-ns#">
 <metadata>
  <rdf:RDF>
   <cc:Work rdf:about="">
    <dc:format>image/svg+xml</dc:format>
    <dc:type rdf:resource="http://purl.org/dc/dcmitype/StillImage"/>
    <dc:title/>
   </cc:Work>
  </rdf:RDF>
 </metadata>
 <g transform="translate(66.939 44.414)">
  <path transform="rotate(46.407)" d="m234.36 21.264a101.3 101.3 0 0 1-100.96 101.3 101.3 101.3 0 0 1-101.64-100.62 101.3 101.3 0 0 1 100.27-101.97 101.3 101.3 0 0 1 102.31 99.931" fill="none" stroke="#050505" stroke-dasharray="78.66, 78.66" stroke-dashoffset="196.65" stroke-linecap="round" stroke-linejoin="bevel" stroke-width="19.665" style="paint-order:stroke fill markers"/>
  <path d="m96.063 111.44a19.778 19.778 0 0 1-19.711 19.778 19.778 19.778 0 0 1-19.844-19.645 19.778 19.778 0 0 1 19.578-19.91 19.778 19.778 0 0 1 19.976 19.511" fill="#faac00" style="paint-order:stroke fill markers"/>
  <g fill="none" stroke="#333831" stroke-linecap="round" stroke-linejoin="round" stroke-width="17.752">
   <path d="m76.359 28.132v-63.543"/>
   <path d="m76.359 257.88v-63.543"/>
   <path d="m5.6062 110.86h-63.543"/>
   <path d="m214.4 110.86h-63.543"/>
  </g>
 </g>
</svg>
